<mxfile host="app.diagrams.net" modified="2021-04-22T02:26:03.134Z" agent="5.0 (Windows)" etag="sQKj6RUzQOOfVraelClp" version="14.6.5" type="github">
  <diagram id="C5RBs43oDa-KdzZeNtuy" name="Page-1">
    <mxGraphModel dx="716" dy="377" grid="1" gridSize="10" guides="1" tooltips="1" connect="1" arrows="1" fold="1" page="1" pageScale="1" pageWidth="827" pageHeight="1169" math="0" shadow="0">
      <root>
        <mxCell id="WIyWlLk6GJQsqaUBKTNV-0" />
        <mxCell id="WIyWlLk6GJQsqaUBKTNV-1" parent="WIyWlLk6GJQsqaUBKTNV-0" />
        <mxCell id="WIyWlLk6GJQsqaUBKTNV-2" value="" style="rounded=0;html=1;jettySize=auto;orthogonalLoop=1;fontSize=11;endArrow=block;endFill=0;endSize=8;strokeWidth=1;shadow=0;labelBackgroundColor=none;edgeStyle=orthogonalEdgeStyle;" parent="WIyWlLk6GJQsqaUBKTNV-1" source="WIyWlLk6GJQsqaUBKTNV-3" target="pVdlfNSVQghq543598hL-2" edge="1">
          <mxGeometry relative="1" as="geometry">
            <mxPoint x="210" y="100" as="targetPoint" />
          </mxGeometry>
        </mxCell>
        <mxCell id="WIyWlLk6GJQsqaUBKTNV-3" value="Deep Network" style="rounded=1;whiteSpace=wrap;html=1;fontSize=12;glass=0;strokeWidth=1;shadow=0;" parent="WIyWlLk6GJQsqaUBKTNV-1" vertex="1">
          <mxGeometry x="150" y="20" width="120" height="40" as="geometry" />
        </mxCell>
        <mxCell id="pVdlfNSVQghq543598hL-0" value="&lt;div&gt;获取相机的内参&lt;/div&gt;&lt;div&gt;获取畸变系数&lt;br&gt;获取图像宽高&lt;br&gt;&lt;/div&gt;" style="rounded=1;whiteSpace=wrap;html=1;fontSize=12;glass=0;strokeWidth=1;shadow=0;" vertex="1" parent="WIyWlLk6GJQsqaUBKTNV-1">
          <mxGeometry y="240" width="120" height="90" as="geometry" />
        </mxCell>
        <mxCell id="pVdlfNSVQghq543598hL-2" value="&lt;div align=&quot;left&quot;&gt;h: 目标在相机坐标系的高度&lt;br&gt;w: 目标在相机坐标系的宽度&lt;br&gt;l：目标在相机坐标系的长度&lt;br&gt;alpha_deg： 目标在相机坐标系的航向角&lt;/div&gt;&lt;div align=&quot;left&quot;&gt;upper_left： 目标在图像中的2D box 的左上角角&lt;br&gt;lower_right：目标在图像中的2D box 的右下角点&lt;/div&gt;" style="rounded=1;whiteSpace=wrap;html=1;fontSize=12;glass=0;strokeWidth=1;shadow=0;align=left;" vertex="1" parent="WIyWlLk6GJQsqaUBKTNV-1">
          <mxGeometry x="77.5" y="110" width="265" height="90" as="geometry" />
        </mxCell>
      </root>
    </mxGraphModel>
  </diagram>
</mxfile>
